<svg width="815" height="564" viewBox="0 0 815 564" fill="none" xmlns="http://www.w3.org/2000/svg">
<path fill-rule="evenodd" clip-rule="evenodd" d="M576 8H24C15.1634 8 8 15.1634 8 24V540C8 548.837 15.1635 556 24 556H576C584.837 556 592 548.837 592 540V24C592 15.1634 584.837 8 576 8ZM24 0C10.7452 0 0 10.7452 0 24V540C0 553.255 10.7452 564 24 564H576C589.255 564 600 553.255 600 540V242H765.5H766H766.5C776.165 242 784 234.165 784 224.5H783.863L784.167 90.2544C801.99 85.0062 815 68.5224 815 49C815 25.2518 795.748 6 772 6C748.252 6 729 25.2518 729 49C729 68.2787 741.687 84.5942 759.168 90.0526L758.88 217H600V24C600 10.7452 589.255 0 576 0H24ZM767.164 91.7311L766.862 225.007L763.571 225H600V234H765.5H766H766.5C771.582 234 775.733 230.009 775.988 224.99L775.862 224.989L776.164 91.801C774.794 91.9327 773.405 92 772 92C770.365 92 768.751 91.9088 767.164 91.7311ZM185 62H65C63.8954 62 63 62.8954 63 64V277C63 278.105 63.8954 279 65 279H185C186.105 279 187 278.105 187 277V64C187 62.8954 186.105 62 185 62ZM65 54C59.4772 54 55 58.4771 55 64V277C55 282.523 59.4772 287 65 287H185C190.523 287 195 282.523 195 277V64C195 58.4772 190.523 54 185 54H65ZM415 62H535C536.105 62 537 62.8954 537 64V277C537 278.105 536.105 279 535 279H415C413.895 279 413 278.105 413 277V64C413 62.8954 413.895 62 415 62ZM405 64C405 58.4771 409.477 54 415 54H535C540.523 54 545 58.4772 545 64V277C545 282.523 540.523 287 535 287H415C409.477 287 405 282.523 405 277V64ZM360 62H240C238.895 62 238 62.8954 238 64V277C238 278.105 238.895 279 240 279H360C361.105 279 362 278.105 362 277V64C362 62.8954 361.105 62 360 62ZM240 54C234.477 54 230 58.4771 230 64V277C230 282.523 234.477 287 240 287H360C365.523 287 370 282.523 370 277V64C370 58.4772 365.523 54 360 54H240ZM389.715 456.297C382.643 446.558 373.119 441.195 362.898 441.195C357.43 441.195 352.138 442.744 347.286 445.725C345.848 435.613 342.049 417.062 332.2 397.044C327.682 387.861 322.375 379.398 316.343 371.703C349.261 367.711 374.874 339.038 374.874 304.366C374.874 301.954 372.96 300 370.598 300C336.982 300 309.122 325.641 304.781 358.777C302.817 356.852 300.802 354.985 298.723 353.194C281.595 338.431 260.621 328.265 236.384 322.978C234.075 322.475 231.802 323.979 231.309 326.336C230.816 328.694 232.288 331.015 234.597 331.518C257.372 336.486 277.04 345.98 293.054 359.736C295.516 361.85 297.892 364.069 300.184 366.385C284.393 377.536 271.247 395.37 261.967 418.327C257.402 429.622 254.731 439.706 253.304 446.099C248.292 442.878 242.795 441.197 237.105 441.197C226.884 441.197 217.36 446.56 210.287 456.298C203.499 465.645 199.76 478.003 199.76 491.096C199.76 504.191 203.499 516.551 210.287 525.898C217.359 535.637 226.883 541 237.105 541C238.35 541 239.594 540.919 240.8 540.76C250.982 539.431 261.308 539.431 271.484 540.759C272.696 540.919 273.941 541 275.185 541C284.423 541 293.227 536.489 300.006 528.441C306.826 536.558 315.531 541 324.819 541C326.051 541 327.294 540.919 328.515 540.759C338.696 539.429 349.02 539.429 359.202 540.759C360.423 540.919 361.666 541 362.897 541C373.118 541 382.642 535.636 389.714 525.897C396.502 516.549 400.24 504.191 400.24 491.098C400.241 478.005 396.503 465.645 389.715 456.297ZM366.153 308.906C363.987 337.873 341.277 361.065 312.91 363.276C315.076 334.309 337.786 311.117 366.153 308.906ZM269.872 421.659C276.132 406.173 287.425 385.507 306.119 372.828C313.201 381.079 319.326 390.39 324.412 400.669C333.042 418.11 336.815 434.653 338.43 444.589C334.138 442.353 329.545 441.194 324.82 441.194C315.532 441.194 306.826 445.637 300.006 453.754C293.226 445.708 284.423 441.197 275.185 441.197C270.83 441.197 266.587 442.183 262.589 444.088C264.069 438.177 266.395 430.262 269.872 421.659ZM275.185 532.267C274.306 532.267 273.429 532.21 272.574 532.097C261.672 530.675 250.617 530.676 239.711 532.098C238.861 532.209 237.984 532.267 237.105 532.267C221.228 532.267 208.311 513.797 208.311 491.095C208.311 468.396 221.228 449.929 237.105 449.929C242.844 449.929 248.409 452.389 253.197 457.042C254.848 458.647 257.441 458.647 259.093 457.042C263.881 452.389 269.446 449.929 275.184 449.929C282.486 449.929 289.548 454.008 294.888 461.194C290.085 469.772 287.476 480.175 287.476 491.096C287.476 502.017 290.085 512.421 294.888 521C289.549 528.188 282.487 532.267 275.185 532.267ZM362.898 532.266C362.028 532.266 361.149 532.209 360.288 532.097C354.836 531.384 349.348 531.028 343.859 531.028C338.371 531.028 332.881 531.384 327.431 532.097C326.569 532.209 325.691 532.266 324.82 532.266C316.542 532.266 309.075 527.239 303.818 519.215C303.673 518.92 303.496 518.639 303.285 518.381C298.775 511.111 296.028 501.556 296.028 491.096C296.028 468.396 308.944 449.927 324.82 449.927C330.559 449.927 336.123 452.387 340.912 457.04C342.563 458.645 345.155 458.644 346.807 457.039C351.595 452.387 357.159 449.927 362.898 449.927C378.774 449.927 391.69 468.396 391.69 491.096C391.69 513.797 378.774 532.266 362.898 532.266ZM807 49C807 68.33 791.33 84 772 84C752.67 84 737 68.33 737 49C737 29.67 752.67 14 772 14C791.33 14 807 29.67 807 49Z" fill="black"/>
</svg>
